<?xml version="1.0" encoding="UTF-8"?>
<svg id="Layer_1" data-name="Layer 1" xmlns="http://www.w3.org/2000/svg" viewBox="0 0 1024 1024">
  <defs>
    <style>
      .cls-1 {
        fill: #fff;
      }
    </style>
  </defs>
  <path class="cls-1" d="M540.1,457.61v144.17c6.99,11.79,13.95,23.59,20.92,35.4,30.99,52.54,63.03,106.86,97.04,158.53l4.32,6.57-154.82,165.89-158.37-164.36,4.39-6.68c48.65-73.97,86.79-136.6,119.86-196.84v-143l-171.96,166.55-43.67-46.13,165.06-167.36h-237.76v-68.33h234.28l-163.57-164.37,47.73-45.46,169.9,166.07V60.36h66.67v237.61l167.68-166.87,46.3,48.55-160.09,162.39h124.5l125-123.33h94l-190.74,191.67h-156.14M507.5,870.42l68.33-76.76-67.6-112.49-70.33,112.53,69.6,76.72Z"/>
  <path class="cls-1" d="M531.61,398.8l-1.51,205.72c39.16,65.97,77.43,132.6,119.6,196.69l-142.26,152.43-145.51-151.01c42.8-65.08,84.06-131.39,121.5-199.77v-169.17l-181.65,175.93-30.07-31.77,175.06-177.5h-251.67v-48.33h248.33l-173.33-174.18,33.34-31.76,179.99,175.93V70.36h46.67v251.67l177.5-176.64,32.56,34.14-170.06,172.5h152.5l125-123.33h65.83l-170.83,171.67-204.46-1.55M508.4,662.03l-82.99,132.79,82.16,90.57,80.62-90.57-79.79-132.78Z"/>
</svg>