<?xml version="1.0" encoding="UTF-8"?>
<svg id="Layer_1" data-name="Layer 1" xmlns="http://www.w3.org/2000/svg" viewBox="0 0 1024 1024">
  <defs>
    <style>
      .cls-1 {
        fill: #fff;
      }
    </style>
  </defs>
  <ellipse cx="512" cy="512" rx="492.13" ry="473.99"/>
  <g>
    <path class="cls-1" d="M530.72,467.16v114.11c5.53,9.33,11.04,18.67,16.56,28.02,24.53,41.58,49.89,84.58,76.8,125.47l3.42,5.2-122.54,131.3-125.35-130.09,3.48-5.29c38.5-58.55,68.69-108.11,94.86-155.79v-113.18l-136.1,131.82-34.56-36.51,130.64-132.46h-188.18v-54.08h185.42l-129.46-130.09,37.77-35.98,134.47,131.44v-188.3h52.76v188.06l132.72-132.07,36.65,38.42-126.7,128.52h98.53l98.93-97.61h74.39l-150.96,151.7h-123.58M504.93,793.88l54.08-60.75-53.5-89.03-55.67,89.07,55.09,60.72Z"/>
    <path class="cls-1" d="M524.01,420.62l-1.2,162.82c30.99,52.21,61.28,104.95,94.66,155.67l-112.59,120.64-115.17-119.52c33.87-51.51,66.53-103.99,96.16-158.11v-133.89l-143.77,139.24-23.8-25.14,138.55-140.49h-199.19v-38.25h196.55l-137.18-137.85,26.39-25.14,142.45,139.24v-199.19h36.94v199.19l140.48-139.8,25.77,27.02-134.6,136.53h120.7l98.93-97.61h52.1l-135.21,135.87-161.82-1.23M505.64,628.95l-65.69,105.09,65.03,71.68,63.81-71.68-63.15-105.09Z"/>
  </g>
</svg>